<svg width="26" height="24" viewBox="0 0 26 24" fill="none" xmlns="http://www.w3.org/2000/svg">
<path d="M12.9988 0C20.1797 0 26 4.55653 26 10.1788C26 15.7999 20.1797 20.3564 13 20.3564C12.2851 20.3551 11.571 20.3094 10.8618 20.2196L5.40429 23.8049C4.784 24.1344 4.56486 24.0984 4.81991 23.2913L5.92429 18.7173C2.35857 16.9017 0 13.7554 0 10.1788C0 4.55777 5.81905 0 13 0M20.3147 10.0234L22.1347 8.25249C22.2397 8.14294 22.2983 7.99672 22.2981 7.84465C22.2979 7.69257 22.239 7.54649 22.1337 7.4372C22.0284 7.3279 21.885 7.26392 21.7337 7.25872C21.5824 7.25352 21.4349 7.30752 21.3225 7.40933L18.9354 9.72988V7.81226C18.9354 7.65658 18.8739 7.50728 18.7643 7.3972C18.6547 7.28712 18.506 7.22528 18.351 7.22528C18.1961 7.22528 18.0474 7.28712 17.9378 7.3972C17.8282 7.50728 17.7667 7.65658 17.7667 7.81226V10.9921C17.7461 11.083 17.7461 11.1773 17.7667 11.2682V13.0577C17.7667 13.2134 17.8282 13.3627 17.9378 13.4728C18.0474 13.5829 18.1961 13.6447 18.351 13.6447C18.506 13.6447 18.6547 13.5829 18.7643 13.4728C18.8739 13.3627 18.9354 13.2134 18.9354 13.0577V11.3627L19.4641 10.8491L21.2321 13.3773C21.2762 13.4405 21.3323 13.4942 21.3972 13.5356C21.462 13.5769 21.5343 13.605 21.6099 13.6183C21.6856 13.6316 21.7631 13.6298 21.8381 13.613C21.913 13.5962 21.9839 13.5647 22.0468 13.5204C22.1096 13.476 22.1631 13.4197 22.2043 13.3546C22.2455 13.2894 22.2735 13.2168 22.2867 13.1408C22.2999 13.0648 22.2981 12.987 22.2814 12.9117C22.2646 12.8364 22.2333 12.7652 22.1891 12.7021L20.3147 10.0234ZM16.6524 12.416H14.8448V7.83091C14.8378 7.68007 14.7733 7.53771 14.6646 7.43342C14.5559 7.32914 14.4113 7.27094 14.261 7.27094C14.1107 7.27094 13.9661 7.32914 13.8574 7.43342C13.7487 7.53771 13.6842 7.68007 13.6772 7.83091V13.003C13.6772 13.3264 13.9372 13.59 14.2604 13.59H16.6524C16.8074 13.59 16.956 13.5282 17.0656 13.4181C17.1752 13.308 17.2368 13.1587 17.2368 13.003C17.2368 12.8473 17.1752 12.698 17.0656 12.588C16.956 12.4779 16.8074 12.416 16.6524 12.416ZM9.40086 11.0593L10.2626 8.93522L11.0525 11.058L9.40086 11.0593ZM12.5246 11.6649L12.527 11.645C12.5266 11.4972 12.4704 11.355 12.3698 11.2471L11.0748 7.765C11.0205 7.59906 10.9171 7.45372 10.7783 7.34839C10.6396 7.24306 10.4722 7.18275 10.2985 7.17554C10.1236 7.17546 9.95282 7.22851 9.80853 7.32772C9.66424 7.42693 9.5532 7.56766 9.49 7.73142L7.43229 12.7991C7.37367 12.9432 7.37446 13.1048 7.43448 13.2484C7.49451 13.3919 7.60884 13.5056 7.75233 13.5645C7.89583 13.6234 8.05673 13.6226 8.19964 13.5623C8.34255 13.502 8.45577 13.3872 8.51438 13.243L8.92543 12.232H11.4883L11.8572 13.2269C11.8824 13.3012 11.9222 13.3698 11.9742 13.4284C12.0262 13.4871 12.0894 13.5346 12.1601 13.5683C12.2307 13.6019 12.3074 13.621 12.3855 13.6244C12.4636 13.6277 12.5416 13.6153 12.6149 13.5878C12.6882 13.5604 12.7552 13.5184 12.812 13.4645C12.8688 13.4105 12.9143 13.3456 12.9457 13.2737C12.9771 13.2018 12.9938 13.1242 12.9949 13.0457C12.9959 12.9672 12.9812 12.8892 12.9517 12.8165L12.5246 11.6649ZM8.41038 7.83713C8.41071 7.76006 8.39586 7.68368 8.36668 7.6124C8.33751 7.54112 8.29458 7.47634 8.24039 7.42178C8.18619 7.36723 8.12178 7.32398 8.05088 7.29452C7.97997 7.26507 7.90397 7.24999 7.82724 7.25015H3.80962C3.65463 7.25015 3.50599 7.31199 3.3964 7.42207C3.28681 7.53215 3.22524 7.68145 3.22524 7.83713C3.22524 7.9928 3.28681 8.1421 3.3964 8.25218C3.50599 8.36226 3.65463 8.4241 3.80962 8.4241H5.24581V13.0702C5.24581 13.2258 5.30738 13.3751 5.41697 13.4852C5.52656 13.5953 5.6752 13.6571 5.83019 13.6571C5.98518 13.6571 6.13382 13.5953 6.24341 13.4852C6.353 13.3751 6.41457 13.2258 6.41457 13.0702V8.4241H7.826C7.90283 8.42443 7.97897 8.40948 8.05002 8.38009C8.12107 8.35071 8.18562 8.30749 8.23995 8.25292C8.29428 8.19835 8.33731 8.13351 8.36656 8.06214C8.39582 7.99078 8.41071 7.9143 8.41038 7.83713Z" fill="#ED7D31"/>
</svg>
