<svg width="30" height="30" viewBox="0 0 30 30" fill="none" xmlns="http://www.w3.org/2000/svg">
<path d="M11.0953 22.1906C7.99431 22.1906 5.37013 21.1164 3.22276 18.9679C1.07539 16.8193 0.00113888 14.1952 9.03159e-07 11.0953C-0.00113708 7.99545 1.07312 5.37127 3.22276 3.22276C5.3724 1.07425 7.99659 0 11.0953 0C14.194 0 16.8188 1.07425 18.9696 3.22276C21.1203 5.37127 22.194 7.99545 22.1906 11.0953C22.1906 12.3471 21.9915 13.5277 21.5932 14.6373C21.1949 15.7468 20.6543 16.7283 19.9716 17.5818L29.5306 27.1408C29.8435 27.4538 30 27.8521 30 28.3357C30 28.8193 29.8435 29.2176 29.5306 29.5306C29.2176 29.8435 28.8193 30 28.3357 30C27.8521 30 27.4538 29.8435 27.1408 29.5306L17.5818 19.9715C16.7283 20.6543 15.7468 21.1949 14.6373 21.5932C13.5277 21.9915 12.3471 22.1906 11.0953 22.1906ZM11.0953 18.7767C13.229 18.7767 15.043 18.0302 16.5371 16.5371C18.0313 15.0441 18.7778 13.2302 18.7767 11.0953C18.7755 8.96046 18.029 7.14708 16.5371 5.65519C15.0452 4.1633 13.2313 3.41622 11.0953 3.41394C8.95932 3.41166 7.14595 4.15875 5.65519 5.65519C4.16444 7.15164 3.41735 8.96501 3.41394 11.0953C3.41053 13.2256 4.15761 15.0395 5.65519 16.5371C7.15277 18.0347 8.96615 18.7812 11.0953 18.7767Z" fill="#BBBBBB"/>
</svg>
